<svg width="272" height="54" viewBox="0 0 272 54" fill="none" xmlns="http://www.w3.org/2000/svg">
<path d="M207.9 38.7C209.1 44.8 213.1 44 213.1 47.5C213.1 49.5 211.5 50 208.8 50H194.8C192 50 190.2 49.4 190.2 47.4C190.2 44.1 195.5 44.4 194.2 37.9L191.1 22.1C189.9 15.8 188.8 9.6 181.9 9.7C176.9 9.7 171.9 14.2 171.9 23.3V36.1C171.9 45.4 176.8 43.1 176.8 47.5C176.8 49.5 175.1 50 172.4 50H158.1C155.2 50 153.5 49.4 153.5 47.4C153.5 43.1 158.4 45.4 158.4 36.1V23C158.4 15.6 157.1 9.3 149.9 9.4C144.5 9.5 139.2 14.5 139.2 23.3V36.1C139.2 45.4 144 43.1 144 47.5C144 49.5 142.4 50 139.6 50H125.3C122.5 50 120.7 49.4 120.7 47.4C120.7 43.1 125.7 45.4 125.7 36.1V17.1C125.7 14.3 124.6 12.5 122.6 11C121.6 10.3 120.7 9.6 120.7 8.2C120.7 6.6 121.5 5.9 123.9 4.8C127.6 3 133.8 1.2 135.4 1.1C137.1 1.1 137.8 2.1 137.8 4.1V10.6C141.7 4.2 147.9 1 154.4 1C162.5 1 167.6 4.5 170.1 10.6C173.9 4.3 179.9 1 186.6 1C198.2 1 201.8 8.4 204.5 21.6L207.9 38.7Z" fill="#3C3C3B"/>
<path d="M265.4 17.7V35.1C265.4 42.4 271.2 40.8 271.2 43.7C271.2 45.1 270.2 46.2 268 47.4C265 49 259.4 50.9 256.6 50.9C253.8 50.9 252.6 49.3 252.4 45.1L252.3 42.4C248.2 47.9 241.8 50.9 236.4 50.9C225.6 50.9 219.5 43.6 219.5 30.8V17.7C219.5 10.8 214.7 11.5 214.7 8.5C214.7 7.2 215.4 6.5 217.8 5.4C222 3.4 229.2 1 230.8 1C232.4 1 233.1 1.9 233.1 4L233 17.7V30.1C233 37.7 235.1 42.5 241.1 42.4C246.4 42.3 251.9 36.7 251.9 28.2V17.7C251.9 10.8 247.1 11.5 247.1 8.5C247.1 7.2 247.8 6.5 250.2 5.4C254.4 3.4 261.6 1 263.2 1C264.8 1 265.5 1.9 265.5 4L265.4 17.7Z" fill="#3C3C3B"/>
<g clip-path="url(#clip0_1_16027)">
<path d="M112.873 11.5204C112.991 11.8038 114.045 11.7764 114.3 12.4987C116.136 17.6921 115.327 23.37 115.7 28.7371C115.763 29.6606 117.245 30.4561 116.973 32.175C116.763 33.5373 115.173 34.5705 114.918 35.5671C114.563 36.9386 115.491 39.1056 114.436 40.5228C113.791 41.3914 112.154 40.8062 111.809 41.1994C111.336 41.7297 111.809 43.54 111.154 44.6647C109.327 47.8374 104.845 48.2305 104.518 48.514C104.082 48.8888 104.491 50.7815 103.482 51.5678C98.9271 55.1154 82.4544 54.1371 76.8089 52.6559C75.3635 52.281 74.7453 50.5895 73.4453 49.794C72.3453 49.1174 70.0998 49.4831 69.3635 48.4042C68.7271 47.4716 69.3271 45.4418 68.7907 44.8384C68.3726 44.3812 66.7453 45.3595 65.9271 43.5949C65.0453 41.7022 66.2271 39.517 66.0998 39.3433C65.8635 38.9958 63.9726 39.005 63.5726 37.7524C63.1271 36.3809 64.2817 34.7808 64.1635 33.391C63.9907 31.2332 61.0271 29.624 65.3635 27.8045C62.0726 23.6901 64.6362 23.6535 65.1544 21.194C65.8817 17.7744 64.8089 19.2647 66.618 14.6017C67.0544 13.4862 65.9089 11.2095 67.0726 9.63689C67.6907 8.80486 69.1817 9.34431 69.6362 8.90543C70.3635 8.2014 70.0726 5.57729 71.2089 4.4801C72.3453 3.38292 73.9271 3.94065 75.0453 3.30977C77.6817 1.81028 79.4362 0.703945 83.1817 0.301642C89.2998 -0.347528 101.973 -0.256096 106.991 3.26405C110.218 5.53158 111.509 8.28369 112.891 11.5113L112.873 11.5204ZM98.8362 36.006C111.863 23.8912 92.1089 8.43913 80.9362 20.1151C70.0089 31.5258 87.0726 46.9413 98.8362 36.006Z" fill="#4B3E59"/>
</g>
<path d="M55.1 38.7C56.4 44.8 60.4 44 60.4 47.5C60.4 49.5 58.7 50 56 50H42C39.2 50 37.5 49.4 37.5 47.4C37.5 44.1 42.7 44.4 41.4 37.9L38.3 22.1C37.1 15.8 35.2 9.6 28.6 9.7C23.3 9.7 18.5 14.5 18.5 23.3V36.1C18.5 45.4 23.3 43.1 23.3 47.5C23.3 49.5 21.7 50 18.9 50H4.6C1.8 50 0 49.4 0 47.4C0 43.1 5 45.4 5 36.1V17.1C5 14.3 3.9 12.5 1.9 11C0.9 10.3 0 9.6 0 8.2C0 6.6 0.8 5.9 3.2 4.8C6.9 3 13.1 1.2 14.7 1.1C16.4 1.1 17.1 2.1 17.1 4.1V10.1C20.9 4.1 27 1 33.4 1C44.8 1 49.1 8.4 51.7 21.6L55.1 38.7Z" fill="#3C3C3B"/>
<defs>
<clipPath id="clip0_1_16027">
<rect width="54" height="54" fill="white" transform="translate(63)"/>
</clipPath>
</defs>
</svg>
