<svg width="272" height="54" viewBox="0 0 272 54" fill="none" xmlns="http://www.w3.org/2000/svg">
<path d="M207.9 38.7C209.1 44.8 213.1 44 213.1 47.5C213.1 49.5 211.5 50 208.8 50H194.8C192 50 190.2 49.4 190.2 47.4C190.2 44.1 195.5 44.4 194.2 37.9L191.1 22.1C189.9 15.8 188.8 9.6 181.9 9.7C176.9 9.7 171.9 14.2 171.9 23.3V36.1C171.9 45.4 176.8 43.1 176.8 47.5C176.8 49.5 175.1 50 172.4 50H158.1C155.2 50 153.5 49.4 153.5 47.4C153.5 43.1 158.4 45.4 158.4 36.1V23C158.4 15.6 157.1 9.3 149.9 9.4C144.5 9.5 139.2 14.5 139.2 23.3V36.1C139.2 45.4 144 43.1 144 47.5C144 49.5 142.4 50 139.6 50H125.3C122.5 50 120.7 49.4 120.7 47.4C120.7 43.1 125.7 45.4 125.7 36.1V17.1C125.7 14.3 124.6 12.5 122.6 11C121.6 10.3 120.7 9.6 120.7 8.2C120.7 6.6 121.5 5.9 123.9 4.8C127.6 3 133.8 1.2 135.4 1.1C137.1 1.1 137.8 2.1 137.8 4.1V10.6C141.7 4.2 147.9 1 154.4 1C162.5 1 167.6 4.5 170.1 10.6C173.9 4.3 179.9 1 186.6 1C198.2 1 201.8 8.4 204.5 21.6L207.9 38.7Z" fill="#3C3C3B"/>
<path d="M265.4 17.7V35.1C265.4 42.4 271.2 40.8 271.2 43.7C271.2 45.1 270.2 46.2 268 47.4C265 49 259.4 50.9 256.6 50.9C253.8 50.9 252.6 49.3 252.4 45.1L252.3 42.4C248.2 47.9 241.8 50.9 236.4 50.9C225.6 50.9 219.5 43.6 219.5 30.8V17.7C219.5 10.8 214.7 11.5 214.7 8.5C214.7 7.2 215.4 6.5 217.8 5.4C222 3.4 229.2 1 230.8 1C232.4 1 233.1 1.9 233.1 4L233 17.7V30.1C233 37.7 235.1 42.5 241.1 42.4C246.4 42.3 251.9 36.7 251.9 28.2V17.7C251.9 10.8 247.1 11.5 247.1 8.5C247.1 7.2 247.8 6.5 250.2 5.4C254.4 3.4 261.6 1 263.2 1C264.8 1 265.5 1.9 265.5 4L265.4 17.7Z" fill="#3C3C3B"/>
<path d="M99.3811 1.04418L101.951 0.973565C102.341 1.33548 99.452 8.20307 102.838 10.2775C105.638 11.9988 111.248 5.89033 112.569 9.35061C113.233 12.7844 108.261 11.9988 106.835 15.0883C103.75 21.7793 112.542 21.9294 117 20.3758V23.8979C115.635 23.6949 108.412 24.1186 108.111 25.2573C107.1 29.1148 112.4 31.3922 115.52 31.8247L116.114 34.4817C112.959 34.0404 110.433 32.9105 107.349 34.57C105.567 40.4313 114.173 40.1665 110.371 45.0568C108.731 43.3708 104.096 40.3695 101.907 41.9143C98.3973 46.2043 108.394 51.024 100.152 50.8739C99.5229 45.0303 92.5746 40.9433 91.4934 48.3228C91.0768 51.1564 94.5598 54.7137 89.5613 53.8752C89.9956 42.541 82.1521 39.2131 80.6987 52.1097L77.1891 51.1917L78.9261 40.6431C75.2393 38.8512 71.8449 46.2484 69.7622 45.86L67.4402 43.7327C77.6145 37.7125 76.418 30.5448 63.8863 35.3556L63.9838 31.9307C75.3191 29.7239 75.966 24.5246 63 25.6545L63.9749 22.2031L70.2762 22.1501C74.2467 17.7718 70.0901 15.309 66.5539 12.8638L68.743 10.8336C71.5702 13.0934 74.0517 15.053 77.9601 14.0997C80.7253 11.425 73.1123 4.37205 76.7371 3.61291C78.7046 3.19803 82.0103 12.343 86.0783 9.40357C88.3028 7.79701 85.6972 2.47419 86.0251 0.0820144C91.0857 -0.906635 89.3131 7.35565 93.5672 8.06183C98.1049 8.81215 98.2555 4.23964 99.3811 1.03536V1.04418ZM85.7681 16.1564C74.3264 18.7693 78.164 41.4376 94.0281 36.7239C107.003 32.8752 101.304 12.6079 85.7681 16.1564Z" fill="#465E8A"/>
<path d="M90 32C93.3137 32 96 29.3137 96 26C96 22.6863 93.3137 20 90 20C86.6863 20 84 22.6863 84 26C84 29.3137 86.6863 32 90 32Z" fill="#465E8A"/>
<path d="M55.1 38.7C56.4 44.8 60.4 44 60.4 47.5C60.4 49.5 58.7 50 56 50H42C39.2 50 37.5 49.4 37.5 47.4C37.5 44.1 42.7 44.4 41.4 37.9L38.3 22.1C37.1 15.8 35.2 9.6 28.6 9.7C23.3 9.7 18.5 14.5 18.5 23.3V36.1C18.5 45.4 23.3 43.1 23.3 47.5C23.3 49.5 21.7 50 18.9 50H4.6C1.8 50 0 49.4 0 47.4C0 43.1 5 45.4 5 36.1V17.1C5 14.3 3.9 12.5 1.9 11C0.9 10.3 0 9.6 0 8.2C0 6.6 0.8 5.9 3.2 4.8C6.9 3 13.1 1.2 14.7 1.1C16.4 1.1 17.1 2.1 17.1 4.1V10.1C20.9 4.1 27 1 33.4 1C44.8 1 49.1 8.4 51.7 21.6L55.1 38.7Z" fill="#3C3C3B"/>
</svg>
