<svg width="272" height="50" viewBox="0 0 272 50" fill="none" xmlns="http://www.w3.org/2000/svg">
<path d="M207.9 37.7C209.1 43.8 213.1 43 213.1 46.5C213.1 48.5 211.5 49 208.8 49H194.8C192 49 190.2 48.4 190.2 46.4C190.2 43.1 195.5 43.4 194.2 36.9L191.1 21.1C189.9 14.8 188.8 8.6 181.9 8.7C176.9 8.7 171.9 13.2 171.9 22.3V35.1C171.9 44.4 176.8 42.1 176.8 46.5C176.8 48.5 175.1 49 172.4 49H158.1C155.2 49 153.5 48.4 153.5 46.4C153.5 42.1 158.4 44.4 158.4 35.1V22C158.4 14.6 157.1 8.3 149.9 8.4C144.5 8.5 139.2 13.5 139.2 22.3V35.1C139.2 44.4 144 42.1 144 46.5C144 48.5 142.4 49 139.6 49H125.3C122.5 49 120.7 48.4 120.7 46.4C120.7 42.1 125.7 44.4 125.7 35.1V16.1C125.7 13.3 124.6 11.5 122.6 10C121.6 9.3 120.7 8.6 120.7 7.2C120.7 5.6 121.5 4.9 123.9 3.8C127.6 2 133.8 0.2 135.4 0.1C137.1 0.1 137.8 1.1 137.8 3.1V9.6C141.7 3.2 147.9 0 154.4 0C162.5 0 167.6 3.5 170.1 9.6C173.9 3.3 179.9 0 186.6 0C198.2 0 201.8 7.4 204.5 20.6L207.9 37.7Z" fill="#3C3C3B"/>
<path d="M265.4 16.7V34.1C265.4 41.4 271.2 39.8 271.2 42.7C271.2 44.1 270.2 45.2 268 46.4C265 48 259.4 49.9 256.6 49.9C253.8 49.9 252.6 48.3 252.4 44.1L252.3 41.4C248.2 46.9 241.8 49.9 236.4 49.9C225.6 49.9 219.5 42.6 219.5 29.8V16.7C219.5 9.8 214.7 10.5 214.7 7.5C214.7 6.2 215.4 5.5 217.8 4.4C222 2.4 229.2 0 230.8 0C232.4 0 233.1 0.9 233.1 3L233 16.7V29.1C233 36.7 235.1 41.5 241.1 41.4C246.4 41.3 251.9 35.7 251.9 27.2V16.7C251.9 9.8 247.1 10.5 247.1 7.5C247.1 6.2 247.8 5.5 250.2 4.4C254.4 2.4 261.6 0 263.2 0C264.8 0 265.5 0.9 265.5 3L265.4 16.7Z" fill="#3C3C3B"/>
<path d="M55.1 37.7C56.4 43.8 60.4 43 60.4 46.5C60.4 48.5 58.7 49 56 49H42C39.2 49 37.5 48.4 37.5 46.4C37.5 43.1 42.7 43.4 41.4 36.9L38.3 21.1C37.1 14.8 35.2 8.6 28.6 8.7C23.3 8.7 18.5 13.5 18.5 22.3V35.1C18.5 44.4 23.3 42.1 23.3 46.5C23.3 48.5 21.7 49 18.9 49H4.6C1.8 49 0 48.4 0 46.4C0 42.1 5 44.4 5 35.1V16.1C5 13.3 3.9 11.5 1.9 10C0.9 9.3 0 8.6 0 7.2C0 5.6 0.8 4.9 3.2 3.8C6.9 2 13.1 0.2 14.7 0.1C16.4 0.1 17.1 1.1 17.1 3.1V9.1C20.9 3.1 27 0 33.4 0C44.8 0 49.1 7.4 51.7 20.6L55.1 37.7Z" fill="#3C3C3B"/>
<path d="M106.411 18.9158C105.491 17.6774 112.77 10.9727 108.007 5.34854C103.951 0.552665 98.4815 2.95849 94.5285 6.31876C93.052 -2.38166 80.0499 -2.05825 80.2404 7.10756C66.5318 -1.05648 61.3246 13.7177 71.5326 22.8519C60.6578 26.1254 64.3092 38.9434 75.5015 37.8391C68.1273 51.2959 91.4407 53.4809 91.3613 39.4088C92.7345 39.7479 92.3297 41.925 93.3457 43.337C98.807 50.9331 110.65 41.925 103.244 34.6839C113.667 38.3123 117.247 20.1306 106.411 18.9079V18.9158ZM88.8688 27.9081C83.7489 27.9081 83.7648 20.0201 88.8688 20.0201C93.9728 20.0201 93.9728 27.9081 88.8688 27.9081Z" fill="#AF3437"/>
</svg>
