<svg width="272" height="54" viewBox="0 0 272 54" fill="none" xmlns="http://www.w3.org/2000/svg">
<path d="M207.9 38.7C209.1 44.8 213.1 44 213.1 47.5C213.1 49.5 211.5 50 208.8 50H194.8C192 50 190.2 49.4 190.2 47.4C190.2 44.1 195.5 44.4 194.2 37.9L191.1 22.1C189.9 15.8 188.8 9.6 181.9 9.7C176.9 9.7 171.9 14.2 171.9 23.3V36.1C171.9 45.4 176.8 43.1 176.8 47.5C176.8 49.5 175.1 50 172.4 50H158.1C155.2 50 153.5 49.4 153.5 47.4C153.5 43.1 158.4 45.4 158.4 36.1V23C158.4 15.6 157.1 9.3 149.9 9.4C144.5 9.5 139.2 14.5 139.2 23.3V36.1C139.2 45.4 144 43.1 144 47.5C144 49.5 142.4 50 139.6 50H125.3C122.5 50 120.7 49.4 120.7 47.4C120.7 43.1 125.7 45.4 125.7 36.1V17.1C125.7 14.3 124.6 12.5 122.6 11C121.6 10.3 120.7 9.6 120.7 8.2C120.7 6.6 121.5 5.9 123.9 4.8C127.6 3 133.8 1.2 135.4 1.1C137.1 1.1 137.8 2.1 137.8 4.1V10.6C141.7 4.2 147.9 1 154.4 1C162.5 1 167.6 4.5 170.1 10.6C173.9 4.3 179.9 1 186.6 1C198.2 1 201.8 8.4 204.5 21.6L207.9 38.7Z" fill="#3C3C3B"/>
<path d="M265.4 17.7V35.1C265.4 42.4 271.2 40.8 271.2 43.7C271.2 45.1 270.2 46.2 268 47.4C265 49 259.4 50.9 256.6 50.9C253.8 50.9 252.6 49.3 252.4 45.1L252.3 42.4C248.2 47.9 241.8 50.9 236.4 50.9C225.6 50.9 219.5 43.6 219.5 30.8V17.7C219.5 10.8 214.7 11.5 214.7 8.5C214.7 7.2 215.4 6.5 217.8 5.4C222 3.4 229.2 1 230.8 1C232.4 1 233.1 1.9 233.1 4L233 17.7V30.1C233 37.7 235.1 42.5 241.1 42.4C246.4 42.3 251.9 36.7 251.9 28.2V17.7C251.9 10.8 247.1 11.5 247.1 8.5C247.1 7.2 247.8 6.5 250.2 5.4C254.4 3.4 261.6 1 263.2 1C264.8 1 265.5 1.9 265.5 4L265.4 17.7Z" fill="#3C3C3B"/>
<path d="M117 29.9693L102.248 33.3903C99.1869 21.9136 92.2838 13.3392 80.9973 19.1216C80.0608 19.6072 78.2554 22.8642 80.9973 22.5C95.4892 12.491 107.992 36.6898 95.856 48.2327C74.0749 68.9459 49.1269 28.8658 72.2308 6.89455C89.6384 -9.65837 114.895 5.79102 117 29.9693ZM85 25.6214C92.4728 33.7655 84.4763 38.3419 78.5 31.5L76.5561 24.5179C74.9728 30.2562 77.1161 36.0718 82.8028 36.6677C95.8754 38.0582 88.2323 22.2081 85.5 25L85 25.6214Z" fill="#285040"/>
<path d="M55.1 38.7C56.4 44.8 60.4 44 60.4 47.5C60.4 49.5 58.7 50 56 50H42C39.2 50 37.5 49.4 37.5 47.4C37.5 44.1 42.7 44.4 41.4 37.9L38.3 22.1C37.1 15.8 35.2 9.6 28.6 9.7C23.3 9.7 18.5 14.5 18.5 23.3V36.1C18.5 45.4 23.3 43.1 23.3 47.5C23.3 49.5 21.7 50 18.9 50H4.6C1.8 50 0 49.4 0 47.4C0 43.1 5 45.4 5 36.1V17.1C5 14.3 3.9 12.5 1.9 11C0.9 10.3 0 9.6 0 8.2C0 6.6 0.8 5.9 3.2 4.8C6.9 3 13.1 1.2 14.7 1.1C16.4 1.1 17.1 2.1 17.1 4.1V10.1C20.9 4.1 27 1 33.4 1C44.8 1 49.1 8.4 51.7 21.6L55.1 38.7Z" fill="#3C3C3B"/>
</svg>
